<?xml version="1.0" encoding="UTF-8" standalone="no"?>
<!-- Created with Inkscape (http://www.inkscape.org/) -->

<svg
   width="255.99998"
   height="255.99998"
   viewBox="0 0 67.733328 67.733329"
   version="1.1"
   id="svg1"
   xml:space="preserve"
   xmlns="http://www.w3.org/2000/svg"
   xmlns:svg="http://www.w3.org/2000/svg"><defs
     id="defs1" /><g
     id="layer1"
     style="display:inline"><path
       style="fill:#ffde21;fill-opacity:1;stroke-width:0.264583"
       d="M 17.065625,4.7624994 0,33.866666 17.065625,62.970833 H 50.667708 L 67.733332,33.866666 50.667708,4.7624994 Z"
       id="path8" /></g><path
     id="path3"
     style="display:inline;fill:#292c29;fill-opacity:1;stroke-width:0.313257"
     d="m 28.725109,14.675364 c 1.606934,0.140589 2.98688,1.199458 3.538583,2.71525 0.551703,1.515793 0.122126,3.163081 -0.865792,4.247698 l -6.504732,7.14143 -6.504732,-7.14143 c -0.987917,-1.084617 -1.417494,-2.731905 -0.865791,-4.247698 0.551703,-1.515792 1.931649,-2.574661 3.538583,-2.71525 1.606934,-0.140588 3.149786,0.662569 3.83194,2.059531 0.682155,-1.396962 2.225007,-2.200119 3.831941,-2.059531 z" /><path
     style="fill:#ffdf21;fill-opacity:1;stroke-width:0.264583"
     d="m 24.893168,29.019521 2.315349,-8.641 h -2.24972 l 0.798663,-4.966223 -2.077135,-0.06845 -1.046048,6.596452 2.225008,-0.01709 -0.292204,7.180772 z"
     id="path6" /><circle
     style="fill:#292c29;fill-opacity:1;stroke-width:0.264583"
     id="path7"
     cx="44.971436"
     cy="25.163425"
     r="3.5312986" /><path
     style="display:inline;fill:none;fill-opacity:1;stroke:#292c29;stroke-width:3.175;stroke-dasharray:none;stroke-opacity:1"
     d="M 21.994611,47.239888 40.247448,28.987051"
     id="path9" /><path
     style="display:inline;fill:none;fill-opacity:1;stroke:#292c29;stroke-width:3.175;stroke-dasharray:none;stroke-opacity:1"
     d="m 29.484005,31.202881 6.489639,-6.489638 4.273804,4.273808 1.481839,1.481839 v 6.374339 h 7.367457"
     id="path10" /><path
     style="display:inline;fill:none;fill-opacity:1;stroke:#292c29;stroke-width:3.175;stroke-linejoin:bevel;stroke-dasharray:none;stroke-opacity:1"
     d="m 32.831312,36.403187 8.063349,8.063349 -10.434505,1.703255"
     id="path11" /></svg>
