<?xml version="1.0" encoding="UTF-8" standalone="no"?>
<!-- Created with Inkscape (http://www.inkscape.org/) -->

<svg
   width="255.99998"
   height="255.99998"
   viewBox="0 0 67.733328 67.733329"
   version="1.1"
   id="svg1"
   xml:space="preserve"
   xmlns="http://www.w3.org/2000/svg"
   xmlns:svg="http://www.w3.org/2000/svg"><defs
     id="defs1" /><g
     id="layer1"
     style="display:inline"><path
       style="fill:#ffde21;fill-opacity:1;stroke-width:0.264583"
       d="M 17.065625,4.7624994 0,33.866666 17.065625,62.970833 H 50.667708 L 67.733332,33.866666 50.667708,4.7624994 Z"
       id="path8" /></g><path
     style="display:inline;fill:#292d23;stroke-width:2.38125"
     d="m 15.795752,38.356021 5.985995,1.603942 8.615396,-4.974101 -0.596009,-1.032317 14.789251,-8.538576 3.93955,6.823502 4.760346,-2.748389 2.030334,-7.577306 -7.543417,-2.021252 z"
     id="path1" /><path
     style="display:inline;fill:#292d23;stroke-width:2.38125"
     d="M 48.118074,36.359036 37.567917,42.45017 33.181972,34.853493 43.732131,28.762353 Z"
     id="path2" /><path
     style="fill:#292d23;stroke-width:2.38125"
     d="M 14.446939,36.304828 20.980519,32.532666 10.674775,29.77125 Z"
     id="path3" /><path
     style="fill:#292d23;stroke-width:2.38125"
     d="m 13.31012,49.934838 -1.022284,-1.77065 19.195678,-11.082631 1.022285,1.77065 z"
     id="path4" /><path
     style="fill:#292d23;stroke:none;stroke-width:0.264583;stroke-dasharray:none;stroke-opacity:1"
     d="m 17.483624,52.739086 -1.022284,-1.770648 17.307594,-9.992545 1.022284,1.77065 z"
     id="path7" /></svg>
