<?xml version="1.0" encoding="UTF-8" standalone="no"?>
<!-- Created with Inkscape (http://www.inkscape.org/) -->

<svg
   width="255.99998"
   height="255.99998"
   viewBox="0 0 67.733328 67.733329"
   version="1.1"
   id="svg1"
   xml:space="preserve"
   xmlns="http://www.w3.org/2000/svg"
   xmlns:svg="http://www.w3.org/2000/svg"><defs
     id="defs1" /><g
     id="layer1"
     style="display:inline"><path
       style="fill:#ffde21;fill-opacity:1;stroke-width:0.264583"
       d="M 17.065625,4.7624994 0,33.866666 17.065625,62.970833 H 50.667708 L 67.733332,33.866666 50.667708,4.7624994 Z"
       id="path8" /></g><path
     style="display:inline;fill:#292c29;fill-opacity:1;stroke:none;stroke-width:3.175;stroke-linejoin:bevel"
     d="M 44.098427,21.736963 43.49658,19.490839 h 3.177573 V 15.167757 H 42.303059 L 41.700813,12.920141 H 26.032519 l -0.602246,2.247616 h -4.371094 v 4.323082 h 3.177573 l -0.601847,2.246124 z"
     id="path2" /><path
     style="fill:#292c29;fill-opacity:1;stroke:none;stroke-width:3.175;stroke-linejoin:bevel"
     d="M 25.547799,46.382699 C 22.738521,37.616488 21.771126,30.097255 23.186181,24.935411 h 21.36097 c 1.415055,5.161844 0.44766,12.681077 -2.361618,21.447288 z"
     id="path3" /><path
     style="fill:#292c29;fill-opacity:1;stroke:none;stroke-width:3.175;stroke-linejoin:bevel"
     d="M 40.593782,49.064002 H 33.866666 27.13955 c 0.26123,2.953872 3.32902,7.080137 6.727116,7.080137 3.398096,0 6.465886,-4.126265 6.727116,-7.080137 z"
     id="path5" /><path
     style="fill:#ffdf21;fill-opacity:1;stroke-width:3.175;stroke-linejoin:bevel"
     d="m 46.66298,33.574639 -5.988494,-5.988497 v 11.602696 l -4.335873,4.335872 v 7.316197 l 4.90631,4.906312 5.421007,0.125429 z"
     id="path4" /><path
     style="fill:#292c29;stroke-width:3.175;stroke-linejoin:bevel"
     d="m 41.055734,48.844406 5.533377,-5.53338 v 3.784513 l 2.695109,2.695112 -1.82377,1.82377 v 3.26263 l 6.269077,-6.269077 -2.864795,-7.74664 -1.846236,6.086229 v -7.846364 l -5.988494,-5.988497 v 6.906342 l -4.335873,4.335872 v 5.604674 l 4.906309,4.906312 V 51.38911 Z"
     id="path1" /></svg>
