<?xml version="1.0" encoding="UTF-8" standalone="no"?>
<!-- Created with Inkscape (http://www.inkscape.org/) -->

<svg
   width="255.99998"
   height="255.99998"
   viewBox="0 0 67.733328 67.733329"
   version="1.1"
   id="svg1"
   xml:space="preserve"
   xmlns="http://www.w3.org/2000/svg"
   xmlns:svg="http://www.w3.org/2000/svg"><defs
     id="defs1" /><g
     id="layer1"
     style="display:inline"><path
       style="fill:#ffde21;fill-opacity:1;stroke-width:0.264583"
       d="M 17.065625,4.7624994 0,33.866666 17.065625,62.970833 H 50.667708 L 67.733332,33.866666 50.667708,4.7624994 Z"
       id="path8" /></g><path
     style="fill:#292c29;fill-opacity:1;stroke:none;stroke-width:2.38125"
     d="m 26.003803,45.81839 v -4.276987 l -4.657545,-4.454022 h -8.709305 v 4.262138 l 4.46887,4.46887"
     id="path1" /><path
     id="path18"
     style="fill:#292c29;fill-opacity:1;stroke-width:2.38125"
     d="m 31.625977,11.88036 c -5.192016,0 -9.400977,4.20896 -9.400977,9.400976 h -1.746195 v 9.027028 l 11.147171,8.874774 11.147171,-8.874774 v -9.027028 h -1.746194 c 0,-5.192016 -4.20896,-9.400976 -9.400976,-9.400976 z" /><path
     style="fill:#ffde21;fill-opacity:1;stroke:none;stroke-width:2.38125"
     d="m 29.51245,25.661623 -1.292984,2.239515 h -3.32498 v -6.619802 h 13.46298 v 6.619802 h -3.32498 l -1.292984,-2.239515 z"
     id="path14" /><path
     style="fill:none;fill-opacity:1;stroke:#292c29;stroke-width:2.07171;stroke-opacity:1"
     id="path21"
     d="m 42.71366,54.043029 a 7.3256512,7.3256512 0 0 1 -7.582232,3.064705 7.3256512,7.3256512 0 0 1 -5.696135,-5.86828 7.3256512,7.3256512 0 0 1 3.289031,-7.487653" /><path
     style="fill:#292c29;fill-opacity:1;stroke:none;stroke-width:2.38125;stroke-opacity:1"
     d="m 37.273176,52.735616 v -3.285744 l 4.448308,-2.358176 v -1.083133 l -4.448308,-2.358175 v -4.414123 h 13.394532 v 4.414123 L 46.2194,46.008563 v 1.083134 l 4.448308,2.358176 v 3.285744"
     id="path23" /><path
     style="fill:#ffde21;fill-opacity:1;stroke:none;stroke-width:2.38125;stroke-opacity:1"
     d="m 48.489028,42.635122 v -1.16582 h -9.037172 v 1.16582 l 4.518586,2.277898 z"
     id="path25" /><path
     style="fill:#ffde21;fill-opacity:1;stroke:none;stroke-width:2.38125;stroke-opacity:1"
     d="m 40.212531,54.942382 h 3.464388 v -1.765268 h -3.551203 z"
     id="path26" /><path
     style="fill:#2a2b2b;fill-opacity:1;stroke:none;stroke-width:2.38125;stroke-opacity:1"
     d="M 35.032487,48.236848 28.282548,41.48691 h 6.749939 z"
     id="path27" /></svg>
