<?xml version="1.0" encoding="UTF-8" standalone="no"?>
<!-- Created with Inkscape (http://www.inkscape.org/) -->

<svg
   width="255.99998"
   height="255.99998"
   viewBox="0 0 67.733328 67.733329"
   version="1.1"
   id="svg1"
   xml:space="preserve"
   xmlns="http://www.w3.org/2000/svg"
   xmlns:svg="http://www.w3.org/2000/svg"><defs
     id="defs1" /><g
     id="layer1"
     style="display:inline"><path
       style="fill:#ffde21;fill-opacity:1;stroke-width:0.264583"
       d="M 17.065625,4.7624994 0,33.866666 17.065625,62.970833 H 50.667708 L 67.733332,33.866666 50.667708,4.7624994 Z"
       id="path8" /></g><path
     style="fill:none;stroke:#292c29;stroke-width:2.38125;stroke-dasharray:none;stroke-opacity:1"
     d="M 46.246061,39.097813 V 52.752326"
     id="path15" /><path
     style="fill:none;stroke:#292c29;stroke-width:2.38125;stroke-dasharray:none;stroke-opacity:1"
     d="M 53.073317,45.925069 H 39.418805"
     id="path16" /><path
     style="fill:#292c29;fill-opacity:1;stroke:none;stroke-width:2.38125"
     d="m 37.103677,45.81839 v -3.370337 h 5.626531 V 37.091276 H 41.866177 L 37.37471,41.582744 H 25.841622 L 21.34626,37.087381 h -8.709305 v 4.262138 l 4.46887,4.46887"
     id="path1" /><path
     id="path18"
     style="fill:#292c29;fill-opacity:1;stroke-width:2.38125"
     d="m 31.625977,11.88036 c -5.192016,0 -9.400977,4.20896 -9.400977,9.400976 h -1.746195 v 9.027028 l 11.147171,8.874774 11.147171,-8.874774 v -9.027028 h -1.746194 c 0,-5.192016 -4.20896,-9.400976 -9.400976,-9.400976 z" /><path
     style="fill:#ffde21;fill-opacity:1;stroke:none;stroke-width:2.38125"
     d="m 29.51245,25.661623 -1.292984,2.239515 h -3.32498 v -6.619802 h 13.46298 v 6.619802 h -3.32498 l -1.292984,-2.239515 z"
     id="path14" /></svg>
