<?xml version="1.0" encoding="UTF-8" standalone="no"?>
<!-- Created with Inkscape (http://www.inkscape.org/) -->

<svg
   width="255.99998"
   height="255.99998"
   viewBox="0 0 67.733328 67.733329"
   version="1.1"
   id="svg1"
   xml:space="preserve"
   xmlns="http://www.w3.org/2000/svg"
   xmlns:svg="http://www.w3.org/2000/svg"><defs
     id="defs1" /><g
     id="layer1"
     style="display:inline"><path
       style="fill:#ffde21;fill-opacity:1;stroke-width:0.264583"
       d="M 17.065625,4.7624994 0,33.866666 17.065625,62.970833 H 50.667708 L 67.733332,33.866666 50.667708,4.7624994 Z"
       id="path8" /></g><path
     style="display:inline;fill:#292c29;fill-opacity:1;stroke-width:0.264583"
     d="M 15.995874,16.826287 V 45.73289 L 33.866666,56.050595 51.737458,45.73289 V 16.826287 L 33.866666,14.581022 Z"
     id="path2" /><path
     style="fill:#ffdf21;fill-opacity:1;stroke-width:0.264583"
     d="m 24.578774,31.015793 0.952983,2.119364 c -5.770559,6.237817 -2.731228,10.329121 6.731704,7.444016 l 3.132828,0.993483 C 21.648686,47.978171 15.645083,39.431668 24.578774,31.015793 Z"
     id="path13" /><path
     style="fill:#ffdf21;fill-opacity:1;stroke-width:0.264583"
     d="m 43.867421,35.504326 -1.170059,-1.962965 c 4.81173,-6.144273 2.064092,-8.485494 -3.867541,-7.751909 l -3.407653,-1.425963 c 13.420198,-3.856432 14.47907,5.952242 8.445253,11.140837 z"
     id="path14" /><path
     style="fill:#a74040;fill-opacity:0.498586;stroke-width:0.264583"
     d="m 42.697362,33.541361 1.170059,1.962965"
     id="path15" /><path
     style="fill:#a74040;fill-opacity:0.498586;stroke-width:0.264583"
     d="m 35.422168,24.363489 3.407653,1.425963"
     id="path16" /><path
     style="fill:#ffdf21;fill-opacity:1;stroke-width:0.264583"
     d="m 46.760476,38.663043 -5.051396,1.666258 -1.666258,5.051396 -1.666258,-5.051396 -5.051396,-1.666258 5.051396,-1.666258 1.666258,-5.051396 1.666258,5.051396 z"
     id="path19" /><path
     style="fill:#ffdf21;fill-opacity:1;stroke-width:0.264583"
     d="m 34.380931,26.282079 -5.051396,1.666258 -1.666258,5.051396 -1.666258,-5.051396 -5.051396,-1.666258 5.051396,-1.666258 1.666258,-5.051396 1.666258,5.051396 z"
     id="path21" /></svg>
