<?xml version="1.0" encoding="UTF-8" standalone="no"?>
<!-- Created with Inkscape (http://www.inkscape.org/) -->

<svg
   width="255.99998"
   height="255.99998"
   viewBox="0 0 67.733328 67.733329"
   version="1.1"
   id="svg1"
   xml:space="preserve"
   xmlns="http://www.w3.org/2000/svg"
   xmlns:svg="http://www.w3.org/2000/svg"><defs
     id="defs1" /><g
     id="layer1"
     style="display:inline"><path
       style="fill:#ffde21;fill-opacity:1;stroke-width:0.264583"
       d="M 17.065625,4.7624994 0,33.866666 17.065625,62.970833 H 50.667708 L 67.733332,33.866666 50.667708,4.7624994 Z"
       id="path8" /><path
       style="fill:#2a2c25;fill-opacity:1;stroke:#292c29;stroke-width:3.70417;stroke-dasharray:none;stroke-opacity:1"
       d="M 45.026111,35.691767 34.693254,48.28057"
       id="path2" /><path
       style="fill:#292c29;fill-opacity:1;stroke:#292c29;stroke-width:0.285942;stroke-dasharray:none;stroke-opacity:1"
       d="M 40.846601,32.501446 V 13.354915 H 28.53986 c -0.795127,9.707903 2.066229,14.756803 4.633299,16.930063 -2.375905,1.678999 -3.76494,6.011238 -4.138748,8.187135 -0.313822,1.826727 -1.41922,3.437687 -2.178503,4.19697 l -4.06617,4.372023 6.650417,6.650419 3.347133,1.224846 1.368086,-2.209985 -2.898584,-1.6735 -1.577205,-4.926359 z"
       id="path3" /><path
       style="fill:#2b2b29;fill-opacity:1;stroke:none;stroke-width:0.264583;stroke-dasharray:none;stroke-opacity:0.504505"
       d="M 28.963664,30.682541 C 26.95786,27.667382 24.353751,22.852343 24.915017,13.354915 h -3.46114 c -0.561266,9.497428 2.533951,16.089809 4.539755,19.104967 z"
       id="path9" /></g></svg>
