<?xml version="1.0" encoding="UTF-8" standalone="no"?>
<!-- Created with Inkscape (http://www.inkscape.org/) -->

<svg
   width="255.99998"
   height="255.99998"
   viewBox="0 0 67.733328 67.733329"
   version="1.1"
   id="svg1"
   xml:space="preserve"
   xmlns="http://www.w3.org/2000/svg"
   xmlns:svg="http://www.w3.org/2000/svg"><defs
     id="defs1" /><g
     id="layer1"><path
       style="fill:#ffde21;fill-opacity:1;stroke-width:0.264583"
       d="M 17.065625,4.7624994 0,33.866666 17.065625,62.970833 H 50.667708 L 67.733332,33.866666 50.667708,4.7624994 Z"
       id="path8" /></g><path
     style="fill:none;fill-opacity:1;stroke:#292d23;stroke-width:2.64583;stroke-dasharray:none;stroke-opacity:1"
     id="path17"
     d="M 50.667706,33.866665 A 16.801041,16.801041 0 0 1 37.144385,50.344878 16.801041,16.801041 0 0 1 18.344527,40.296145 16.801041,16.801041 0 0 1 24.532506,19.89711 16.801041,16.801041 0 0 1 45.746794,21.986535" /><path
     style="fill:none;fill-opacity:1;stroke:#292d23;stroke-width:2.64583;stroke-dasharray:none;stroke-opacity:1"
     id="path18"
     d="m 43.887757,33.866665 a 10.021092,10.021092 0 0 1 -8.066074,9.82854 10.021092,10.021092 0 0 1 -11.2133,-5.993634 10.021092,10.021092 0 0 1 3.690861,-12.16714 10.021092,10.021092 0 0 1 12.653403,1.246251" /><circle
     style="fill:#292d23;fill-opacity:1;stroke:none;stroke-width:2.64583;stroke-dasharray:none;stroke-opacity:1"
     id="path19"
     cx="33.866665"
     cy="33.866665"
     r="4.5640612" /><path
     style="display:inline;fill:#292d23;fill-opacity:1;stroke:#292d23;stroke-width:2.64583;stroke-dasharray:none;stroke-opacity:1"
     d="M 33.866666,33.866666 49.371638,18.361693"
     id="path20" /></svg>
