<?xml version="1.0" encoding="UTF-8" standalone="no"?>
<!-- Created with Inkscape (http://www.inkscape.org/) -->

<svg
   width="255.99998"
   height="255.99998"
   viewBox="0 0 67.733328 67.733329"
   version="1.1"
   id="svg1"
   xml:space="preserve"
   xmlns="http://www.w3.org/2000/svg"
   xmlns:svg="http://www.w3.org/2000/svg"><defs
     id="defs1" /><g
     id="layer1"
     style="display:inline"><path
       style="fill:#ffde21;fill-opacity:1;stroke-width:0.264583"
       d="M 17.065625,4.7624994 0,33.866666 17.065625,62.970833 H 50.667708 L 67.733332,33.866666 50.667708,4.7624994 Z"
       id="path8" /><path
       style="display:inline;fill:#292d27;fill-opacity:1;stroke:none;stroke-width:0.264583;stroke-opacity:1"
       d="m 19.394563,23.018666 c -3.36718,4.472917 -3.053032,10.713998 0.746282,14.826187 L 33.866666,53.181249 47.592484,37.844853 c 3.799315,-4.112189 4.113462,-10.353269 0.746283,-14.826187 -3.36718,-4.472917 -9.451702,-5.897127 -14.472102,-3.383323 -5.0204,-2.513804 -11.104922,-1.089594 -14.472102,3.383323 z"
       id="path19" /><path
       id="path16"
       style="display:inline;fill:#ffde21;fill-opacity:1;stroke-width:0.264583"
       transform="scale(-1,1)"
       d="m -45.14328,24.307849 c 2.976801,-3.176728 7.901879,-3.514528 11.276614,-0.773981 3.374735,-2.740547 8.299812,-2.402747 11.276613,0.773981 2.976802,3.176728 2.994198,8.113345 0.03986,11.310973 L -33.866666,48.054947 -45.18314,35.618822 c -2.954338,-3.197628 -2.936942,-8.134245 0.03986,-11.310973 z" /><path
       style="display:inline;fill:#292d27;fill-opacity:1;stroke:none;stroke-width:0.264583;stroke-opacity:1"
       d="M 33.866666,44.797265 23.866017,33.650814 c -1.366875,-1.783027 -1.628292,-4.178415 -0.678189,-6.214302 0.950103,-2.035888 2.953925,-3.374139 5.198473,-3.471797 2.244548,-0.09766 4.357029,1.061498 5.480364,3.007173 1.123336,-1.945675 3.235818,-3.104833 5.480366,-3.007173 2.244548,0.09766 4.24837,1.435909 5.198473,3.471797 0.950103,2.035888 0.688685,4.431275 -0.678189,6.214302 z"
       id="path5" /></g></svg>
